<?xml version="1.0" encoding="UTF-8"?>
<svg version="1.1" xmlns="http://www.w3.org/2000/svg" width="279" height="199" viewBox="0 0 279 199">
<path d="M0 0 C11.57030636 8.46507519 25.11257465 21.30365983 28.1171875 35.90234375 C28.26994141 37.20945312 28.26994141 37.20945312 28.42578125 38.54296875 C31.42962179 37.84753435 31.42962179 37.84753435 34.42578125 36.54296875 C34.79645398 35.21952981 35.1263288 33.88431774 35.42578125 32.54296875 C36.58984375 30.97265625 36.58984375 30.97265625 38.05078125 29.41796875 C41.92813055 25.06867479 45.18054298 20.37539779 48.42578125 15.54296875 C49.01617187 14.66382812 49.6065625 13.7846875 50.21484375 12.87890625 C53.97233892 7.13507002 57.15466775 1.29028971 60.06640625 -4.92578125 C61.31399007 -7.24886837 62.45337187 -8.73987485 64.42578125 -10.45703125 C64.11607201 -4.0563737 62.84487749 0.19938521 59.81640625 5.8125 C48.42578125 32.54296875 48.42578125 32.54296875 48.42578125 32.54296875 C40.98828125 49.41796875 19.11328125 100.41796875 19.11328125 100.41796875 C13.5761905 115.66505797 7.42578125 120.54296875 7.42578125 120.54296875 C4.42578125 123.54296875 4.42578125 123.54296875 0.23828125 126.16796875 C-6.76655365 129.48788209 -16.62890625 129.640625 -16.62890625 129.640625 C-35.57421875 129.54296875 -35.57421875 129.54296875 -35.57421875 129.54296875 C-25.32501821 134.15300875 -4.07421875 131.91796875 -4.07421875 131.91796875 C3.53376042 128.27992502 14.42578125 116.54296875 14.42578125 116.54296875 C22.21484375 101.5390625 30.73828125 81.98046875 30.73828125 81.98046875 C33.16642698 76.43017342 36.1875 69.48046875 36.1875 69.48046875 C45.11328125 49.66796875 51.47265625 34.98828125 51.47265625 34.98828125 C61.7421875 11.203125 68.71020508 -4.54150391 68.71020508 -4.54150391 C71.42578125 -10.45703125 73.42578125 -12.45703125 73.42578125 -12.45703125 C107.42578125 -12.45703125 107.42578125 -12.45703125 107.42578125 -12.45703125 C107.52456164 -8.66036739 107.63330078 -3.55810547 107.63330078 -3.55810547 C103.91796875 6.85546875 99.42578125 16.41796875 99.42578125 16.41796875 C95.33154297 26.1953125 85.55078125 48.79296875 85.55078125 48.79296875 C75.73828125 70.98046875 66.91259766 90.74487305 66.91259766 90.74487305 C57.52001953 112.3894043 50.42578125 127.54296875 50.42578125 127.54296875 C43.12981261 139.91531004 39.42578125 144.54296875 39.42578125 144.54296875 C26.43721902 160.79069975 -10.57421875 172.54296875 -10.57421875 172.54296875 C-32.55724959 173.54114227 -67.57421875 154.54296875 -67.57421875 154.54296875 C-83.2557246 137.13655509 -87.57421875 128.54296875 -87.57421875 128.54296875 C-92.48156505 130.4576938 -108.57421875 152.09375 -108.57421875 152.09375 C-121.57421875 171.54296875 -123.57421875 171.54296875 -123.57421875 171.54296875 C-116.953125 154.35546875 -99.10488501 112.42118712 -99.10488501 112.42118712 C-96.13671875 106.79296875 -85.57421875 73.54296875 -85.57421875 73.54296875 Z M-69.75 42.4375 C-63.90253949 36.61483632 -52.43148729 25.54296875 -43.57421875 25.54296875 C-43.57421875 25.54296875 -69.75 42.4375 -69.75 42.4375 Z" fill="#1F65AC" transform="translate(171.57421875,17.45703125)"/>
<path d="M0 0 C11.57030636 8.46507519 25.11257465 21.30365983 28.1171875 35.90234375 C31.42962179 37.84753435 34.42578125 36.54296875 35.42578125 32.54296875 C41.92813055 25.06867479 48.42578125 15.54296875 48.42578125 15.54296875 C57.15466775 1.29028971 64.42578125 -10.45703125 64.42578125 -10.45703125 C59.81640625 5.8125 48.42578125 32.54296875 48.42578125 32.54296875 C40.98828125 49.41796875 19.11328125 100.41796875 19.11328125 100.41796875 C13.5761905 115.66505797 7.42578125 120.54296875 7.42578125 120.54296875 C4.42578125 123.54296875 -0.01171875 126.29296875 -4.57421875 128.54296875 C-6.57421875 127.54296875 -6.57421875 124.54296875 -6.57421875 124.54296875 C-9.35466484 121.46546645 -15.67089844 119.99365234 -20.49609375 119.94140625 C-36.80859375 119.8203125 -36.80859375 119.8203125 -58.81689453 125.20361328 C-68.19921875 126.88671875 -77.57421875 124.54296875 -77.57421875 124.54296875 C-76.57421875 120.54296875 -59.57421875 120.54296875 -59.57421875 120.54296875 C-60.57421875 116.54296875 -65.57421875 114.98046875 -70.57421875 113.54296875 C-71.57421875 110.54296875 -56.57421875 115.54296875 -56.57421875 115.54296875 C-59.59898227 111.53470574 -75.57421875 107.54296875 -75.57421875 107.54296875 C-75.81914063 111.38671875 -78.63671875 118.04296875 -80.57421875 119.54296875 C-81.76841641 106.04517637 -81.88671875 99.23046875 -81.88671875 99.23046875 C-79.7265625 86.51953125 -72.57421875 82.54296875 -72.57421875 82.54296875 C-80.57421875 77.54296875 -80.57421875 72.54296875 -72.57421875 72.54296875 C-70.8125 74.55859375 -69.57421875 76.54296875 -65.94921875 70.29296875 C-62.03238991 63.62411348 -53.35546875 58.75 -53.35546875 58.75 C-38.14521309 57.14250864 -6.57421875 53.54296875 -6.57421875 53.54296875 C-4.92421875 54.88296875 -0.51171875 57.60546875 -0.51171875 57.60546875 C3.83984375 67.828125 4.42578125 69.54296875 4.42578125 69.54296875 C7.74578125 67.50296875 8.42578125 69.54296875 8.42578125 69.54296875 C13.42578125 69.54296875 15.56864138 56.25723595 4.42578125 34.54296875 C-3.88907565 23.29260585 -26.57421875 11.54296875 -26.57421875 11.54296875 C-22.19921875 5.23046875 4.42578125 7.54296875 4.42578125 7.54296875 C-7.10481263 -0.64982164 -31.57421875 -3.58203125 -42.57421875 -3.45703125 C-41.57421875 -6.45703125 -32.57421875 -8.45703125 -42.57421875 -10.45703125 C-43.57421875 -7.45703125 -47.94921875 -9.20703125 -47.94921875 -9.20703125 C-52.748042 -8.67435828 -53.7578125 -6.49609375 -54.57421875 -4.45703125 C-56.26171875 -3.08203125 -58.57421875 -2.45703125 -61.80859375 -3.64453125 C-65.57098225 -4.83558849 -68.890625 -3.04296875 -68.890625 -3.04296875 C-78.57421875 3.54296875 -87.57421875 13.54296875 -87.57421875 13.54296875 C-90.57421875 12.54296875 -95.57421875 20.54296875 -99.57421875 23.54296875 C-104.57421875 29.54296875 -106.57421875 29.54296875 -80.57421875 -0.45703125 C-54.69002896 -17.6411824 0 0 0 0 Z" fill="#70C36C" transform="translate(171.57421875,17.45703125)"/>
<path d="M0 0 C30.65185547 0.22705078 30.65185547 0.22705078 30.78466797 5.92236328 C30.859375 9.12597656 27.14404297 19.53955078 22.65185547 29.10205078 C18.55761719 38.87939453 8.77685547 61.47705078 8.77685547 61.47705078 C-1.03564453 83.66455078 -19.25390625 125.07348633 -19.25390625 125.07348633 C-26.34814453 140.22705078 -37.34814453 157.22705078 -37.34814453 157.22705078 C-50.33670676 173.47478178 -87.34814453 185.22705078 -87.34814453 185.22705078 C-119.38204803 182.75576485 -142.0390625 177.1953125 -142.0390625 177.1953125 C-142.0390625 176.1953125 -110.0390625 175.1953125 -110.0390625 175.1953125 C-97.5390625 173.1953125 -95.0390625 176.22705078 -95.0390625 176.22705078 C-88.34814453 164.22705078 -91.34814453 163.22705078 -82.34814453 156.22705078 C-83.34814453 154.22705078 -87.34814453 154.22705078 -89.34814453 153.22705078 C-88.34814453 151.22705078 -92.34814453 153.22705078 -92.34814453 151.22705078 C-104.34814453 152.22705078 -108.34814453 153.22705078 -115.34814453 143.22705078 C-110.43017578 144.16455078 -80.84814453 144.60205078 -80.84814453 144.60205078 C-67.44659255 135.88718558 -62.34814453 129.22705078 -54.55908203 114.22314453 C-46.03564453 94.66455078 -31.66064453 62.35205078 -15.03173828 23.88720703 C-8.0637207 8.14257812 -4.53672061 0.65977678 0 0 Z" fill="#53B368" transform="translate(248.34814453125,4.77294921875)"/>
<path d="M0 0 C16.125 2.5 43.625 6 43.625 6 C51.34837245 16.81272143 52.32421875 21.54296875 52.32421875 21.54296875 C49.12133666 27.04580498 40.8125 34.0625 40.8125 34.0625 C40.8125 30.45676104 46.8125 23.0625 46.8125 23.0625 C12.33984375 23.74609375 -5.1875 25.0625 -5.1875 25.0625 C-4.1875 36.0625 -1.1875 37.0625 -2.1875 40.0625 C2.8125 40.0625 2.8125 38.0625 26.375 39.25 C55.3125 33.9375 61.875 35.625 64.8125 38.0625 C65.71788622 41.35294529 64.8125 45.0625 64.8125 45.0625 C55.8125 62.0625 48.375 67.8125 41.8125 69.0625 C41.8125 66.0625 61.90332031 34.45068359 19.83984375 61.43115234 C-10.43017578 66.72314453 -19.8125 68.40625 -29.1875 66.0625 C-28.1875 62.0625 -11.1875 62.0625 -12.1875 58.0625 C-22.1875 55.0625 -23.1875 52.0625 -8.1875 57.0625 C-10.01012165 53.63337785 -27.1875 49.0625 -27.55859375 52.90625 C-30.25 59.5625 -33.08912683 54.30029874 -33.5 40.75 C-31.33984375 28.0390625 -24.1875 24.0625 -32.1875 19.0625 C-32.1875 14.0625 -26.23046875 13.671875 -24.1875 14.0625 C-22.42578125 16.078125 -21.1875 18.0625 -12.72427988 3.59640276 C-7.56827992 -0.12407016 0 0 0 0 Z" fill="#90BCCD" transform="translate(123.1875,75.9375)"/>
<path d="M0 0 C2.625 1.3125 2.625 3.3125 -3.375 7.3125 C-5.455882 10.433823 -5.60546875 14.6640625 -5.56054688 22.55859375 C-5.52240967 28.21137469 -4.375 39.3125 -4.375 39.3125 C-1.96249273 33.9525004 -0.375 28.3125 -0.375 28.3125 C6.2275962 27.79124241 18.25 33.5 19.625 35.3125 C18.625 37.3125 12.67521478 34.19629288 3.625 31.3125 C6.91015625 34.1640625 14.625 36.3125 15.625 41.3125 C6 42.375 -1.375 42.3125 -1.375 42.3125 C-4.21483236 49.15987812 -3.375 56.3125 -6.375 57.3125 C-6.375 55.3125 -9.375 55.3125 -12.375 49.3125 C-15.375 49.3125 -19.125 53.75 -27.375 64 C-41.09416312 86.72990102 -46.375 92.3125 -46.375 92.3125 C-44.76456582 80.68925532 -31.875 51.75 -20.8125 27.25 C-12.375 10.3125 -8.85591861 2.34740617 0 0 Z" fill="#1D7D51" transform="translate(96.375,96.6875)"/>
<path d="M0 0 C3.5859375 0.0703125 7.1875 0.125 7.1875 0.125 C9.9609375 8.1953125 5.0859375 11.0078125 2.9609375 17.1953125 C0.5859375 26.8828125 0.5859375 26.8828125 -2.1015625 32.1328125 C-4.0390625 33.1953125 -4.0390625 33.1953125 -6.57421875 124.54296875 C-9.35466484 121.46546645 -10.4140625 54.4453125 -10.4140625 54.4453125 C-15.30859375 68.6328125 -38.94482422 122.04174805 -46.0390625 137.1953125 C-53.33503114 149.56765379 -57.0390625 154.1953125 -57.0390625 154.1953125 C-70.02762473 170.4430435 -107.0390625 182.1953125 -142.0390625 177.1953125 C-142.0390625 176.1953125 -130.0390625 175.1953125 -110.0390625 175.1953125 C-95.0390625 173.1953125 -106.0390625 170.1953125 -92.7890625 163.0078125 C-85.25326373 157.2038701 -82.0390625 153.1953125 -75.0390625 143.1953125 C-71.0390625 141.1953125 -66.0390625 130.1953125 -53.4140625 110.1328125 C-33.3984375 64.21875 -17.0390625 29.1953125 -15.2265625 24.1953125 C-8.0637207 8.14257812 -5.0390625 2.1953125 0 0 Z" fill="#319D64" transform="translate(268.0390625,7.8046875)"/>
<path d="M0 0 C1.98 4 7 4 8 7 C21 15 21 15 21 18 C16 19 20.0325868 21.01719859 24 24 C26 23 31.30885993 29.2820704 56.390625 30.51171875 C74 25 91 21 91 21 C87.5625 33.0625 83 35 82 38 C73 43 69.625 64.3125 71 42 C57.078125 34.45068359 9.375 41.34375 9.375 41.34375 C6 42.375 0 39 1 35 C6.61 35 18 35 17 31 C12 29.4375 7 28 6 25 C16.55808656 26.74259681 21 30 19.17737835 26.57087785 C9.8125 23.75 5.69715205 22.80376576 2 22 C1.62890625 25.84375 1.11508759 29.86049989 -1.0625 32.5 C-3.90535543 27.20983428 -4.25 13.625 -4.25 13.625 C-2.546875 1.3984375 0 0 0 0 Z" fill="#95C59F" transform="translate(94,103)"/>
<path d="M0 0 C1 0 3.8125 0.0625 3.8125 0.0625 C-11.92 7.98 -29 6 -40 11 C-38.68 17.6 -38 21 -40 21 C-46.75573094 24.34331595 -52 29 -58.29296875 31.97265625 C-61 36 -63.75 37.75 -72 47 C-72.33 46.34 -73 45 -70.8125 40 C-60 19 -58 19 -51 9 C-37.20105129 -2.91994293 0 0 0 0 Z" fill="#10684C" transform="translate(166,20)"/>
<path d="M0 0 C9.85711538 1.7922028 28 10 28 10 C22.3125 20.1875 11 36 11 36 C7 27 7 27 1.23572221 28.92142593 C-8.703125 34.6953125 -15 37 -17 33 C-22 33 -11.30869189 23.43222824 0 0 Z" fill="#E3EFE9" transform="translate(126,31)"/>
<path d="M0 0 C2 1 1 2 -1.3125 5.75 C-8.12426235 15.01267109 -9 17.5 -9 17.5 C-16.51247542 29.22097578 -26 39 -26 39 C-40.66796875 42.02734375 -54.75 44.0625 -62 44 C-44.20463068 41.17050708 -30 34 -36 32 C-34.515 32.495 -33 33 -27.64285714 26 C-25 24 -26.32 24 -29 24 C-29.66 23.34 -31 23 -30 21 C-33 21 -33.66 22.32 -34 23 C-37.1875 21.5 -46 22 -50 23 C-50 21 -52.375 19.125 -57 13 C-42.8125 10.9375 -15.5 14.45615447 -8.52734375 4.31640625 C-3 3 0 0 0 0 Z" fill="#267E44" transform="translate(190,135)"/>
<path d="M0 0 C40 0 40 0 40.1796875 6.0703125 C37.6171875 10.1953125 35.08748714 13.01831145 29.04003906 14.14990234 C13 14 2.625 10.6875 2.625 10.6875 C1 8 -1 4 0 0 Z" fill="#15509C" transform="translate(120,117)"/>
<path d="M0 0 C12.45703125 10.58203125 11.45703125 12.58203125 -31.54296875 -3.54296875 C-42.54296875 -3.45703125 -43.54296875 -7.41796875 -43.54296875 -9.41796875 C-47.91796875 -9.20703125 -52.716792 -8.67435828 -54.57421875 -4.45703125 C-56.26171875 -3.08203125 -58.57421875 -2.45703125 -65.57098225 -4.83558849 C-68.859375 -3.00390625 -78.54296875 3.58203125 -87.54296875 13.54296875 C-90.54296875 12.54296875 -95.57421875 20.54296875 -106.57421875 29.58203125 C-80.54296875 -0.41796875 -54.65165953 -17.6411824 0 0 Z" fill="#74C4E2" transform="translate(171.54296875,17.41796875)"/>
<path d="M0 0 C2 13 0 14 0 17 C-5.47062583 19.40770218 -23 24 -26.6875 30.25 C-28.38671875 33.515625 -30 36 -33 36 C-34 31 -37 31 -30 19.125 C-21.11996558 9.81760179 0 0 0 0 Z" fill="#1567A2" transform="translate(133,58)"/>
<path d="M0 0 C0 2 5 13 5 13 C4.58947266 38.30419922 2.8125 40.0625 2.8125 40.0625 C-5.125 2.8125 -57 9 -57 9 C-57 7 -40.11798497 8.18411405 -5.125 2.8125 C-2.3203125 1.14453125 0 0 0 0 Z" fill="#C0DEC8" transform="translate(183,107)"/>
<path d="M0 0 C3.8125 0.0625 3.8125 3.0625 3.8125 3.0625 C-5.85249416 4.39895401 -11.50390625 8.46484375 -16.1875 17.0625 C-17.125 24.0625 -7.1875 33.0625 -7.1875 39.0625 C-22.1875 34.0625 -22.1875 31.0625 -28.1875 31.0625 C-28.1875 35.0625 -30.1875 35.0625 -29.6925 26.0625 C-24.1875 24.0625 -32.1875 19.0625 -32.1875 14.0625 C-26.23046875 13.671875 -21.1875 18.0625 -12.72427988 3.59640276 C-7.56827992 -0.12407016 0 0 0 0 Z" fill="#BAD5D4" transform="translate(123.1875,75.9375)"/>
<path d="M0 0 C17.08007812 -0.08789062 41.8125 2.9375 41.8125 2.9375 C49.53587245 13.75022143 50.51171875 18.48046875 47.30883666 26.3125 C44.5 26.3125 42.5 23.3125 46 19 C12.33984375 23.74609375 -5.1875 25.0625 -5.1875 25.0625 C-4.1875 36.0625 -1.1875 37.0625 3.8125 40.0625 C3.8125 38.0625 3.8125 38.0625 3.8125 3.0625 C3.8125 0.0625 0 0 0 0 Z" fill="#DEEBE2" transform="translate(140.755615234375,75.704833984375)"/>
<path d="M0 0 C2.625 1.3125 2.625 3.3125 -3.375 7.3125 C-5.455882 10.433823 -5.60546875 14.6640625 -4.375 39.3125 C-1.96249273 33.9525004 -0.375 28.3125 6.2275962 27.79124241 C18.25 33.5 19.625 35.3125 18.625 37.3125 C8.48599676 32.52774919 3.625 31.3125 6.91015625 34.1640625 C14.625 36.3125 15.625 41.3125 6 42.375 C6 42.375 -1.375 42.3125 -4.21483236 49.15987812 C-3.375 56.3125 -6.375 57.3125 -6.375 55.3125 C-9.375 55.3125 -15.375 49.3125 -19.125 53.75 C-41.09416312 86.72990102 -46.375 92.3125 -44.76456582 80.68925532 C-31.875 51.75 -20.8125 27.25 -10.375 10.3125 C-8.85591861 2.34740617 0 0 0 0 Z" fill="#176A4F" transform="translate(96.375,96.6875)"/>
<path d="M0 0 C23.42057752 0.0994534 27.8125 3.125 35.53587245 13.93772143 C36.51171875 18.66796875 33.30883666 26.5 30.5 26.3125 C25 31.1875 25 31.1875 25 28.1875 C11.54 19.1875 -30 19.1875 -23 28.1875 C-24 30.1875 -35 21.1875 -29.5625 7.875 C-20.82224913 -1.71766003 0 0 0 0 Z" fill="#1F84BE" transform="translate(139,78.8125)"/>
<path d="M0 0 C0 0.33 0 0.66 0 1 C8 4 24 24 26 23 C35.35678819 29.2820704 65 30.9375 74 25 C91 21 87.5625 33.0625 83 35 C82 38 73 43 71 42 C57.078125 34.45068359 9.375 41.34375 -28.1875 31.0625 C-29.1875 39 -28.1875 35 -11.1875 35 C-12.1875 31 -21.1875 56.5 -23.1875 52.0625 C-27.1875 49.0625 -23 31 -20.8125 27.25 C-16.75 17.9375 0 0 0 0 Z" fill="#95C59F" transform="translate(94,103)"/>
<path d="M0 0 C3.8125 0.0625 -29 6 -40 11 C-38.68 17.6 -40 21 -46.75573094 24.34331595 C-52 29 -61 36 -63.75 37.75 C-72 47 -73 45 -70.8125 40 C-60 19 -51 9 -37.20105129 -2.91994293 C0 0 0 0 0 0 Z" fill="#10684C" transform="translate(166,20)"/>
<path d="M0 0 C9.85711538 1.7922028 28 10 22.3125 20.1875 C11 36 8.3144406 33.3144406 7 27 C1.23572221 28.92142593 -15 37 -17 33 C-22 33 -11.30869189 23.43222824 0 0 Z" fill="#E3EFE9" transform="translate(126,31)"/>
<path d="M0 0 C0.66 0.33 2 1 -1.3125 5.75 C-9 17.5 -13 21 -13 21 C-22 22 -23 22 -23 20 C-23 19 -24 18 -26 18 C-26.33 18.66 -27 20 -28.5778125 18.2475 C-33.21695986 19 -43 20 -43 18 C-45.375 16.125 -48.85538266 12.91357141 -50 10 C-42.8125 10.9375 -15.5 14.45615447 -8.52734375 4.31640625 C-3 3 0 0 0 0 Z" fill="#1D70B4" transform="translate(141.5625,12.6875)"/>
<path d="M0 0 C1 2 4.25 4.5625 9 9 C10 11 11 11 6 16 C3 7 -7.58511788 11.41913597 -19 17 C-21 13 -26 13 -11.68127725 -0.27165761 C0 0 0 0 0 0 Z" fill="#B0D2C4" transform="translate(130,51)"/>
<path d="M0 0 C1 2 2.625 4.0625 12 16 C14 10 23 3 23 3 C26 15 25 19 22 19 C16 24 16 24 16 19 C11.92921009 22.51732005 9 16.5625 -0.64892578 6.94604492 C-16.875 5.375 -37 5 -37 4 C-15.47925014 3.09973194 0 0 0 0 Z" fill="#48A766" transform="translate(164,71)"/>
<path d="M0 0 C1.25541557 3.76624671 -0.6875 7.125 -3.6875 9 C-9.234375 5.80859375 -15.5625 6.375 -18 8 C-24 13 -35 20 -35 23 C-38 22 -43 30 -54 39 C-47.9019294 21.90692333 -16 2 0 0 Z" fill="#4794C0" transform="translate(119,8)"/>
<path d="M0 0 C1 2 0.29296875 4.34765625 -5 13 C-5.02690104 15.79173055 -4 32 -20 32 C-20 28 -18 28 -19 18 C-17 22 -10.63368771 15.35602461 0 0 Z" fill="#208594" transform="translate(153,43)"/>
<path d="M0 0 C2 3.75 2 6 0 6 C2 9 1.38125 9.20625 -4 17 C-6.125 18.875 -8 20 -10 19 C-5.60305395 7.58365008 -3 2 0 0 Z" fill="#4286BA" transform="translate(67,45)"/>
<path d="M0 0 C1 0 1 0 1 0 C-3.3 1.98 -12 6 -12 6 C-11.18267421 25.91337105 -10.22040787 22.79030234 -8.625 19 C-3.99523169 13.91025021 0 0 0 0 Z" fill="#849EC7" transform="translate(14,160)"/>
<path d="M0 0 C1 2 0.07421875 5.26953125 -6.4375 19.875 C-9 25 -15 38 -21 53 C-21.41935895 48.91125021 -20.81063109 46.33938487 -17 28 C-16.59245619 33.42259682 -13 29 -7 12 C-5.14718056 7.85 -0.68 2.72 0 0 Z" fill="#78D27E" transform="translate(249,36)"/>
</svg>
